<mxfile host="app.diagrams.net" modified="2022-12-19T22:21:38.875Z" agent="5.0 (Windows NT 10.0; Win64; x64) AppleWebKit/537.36 (KHTML, like Gecko) Chrome/108.0.0.0 Safari/537.36" version="20.7.4" etag="sd6jx3ODy9lHFG0Zx26V" type="github">
  <diagram id="_jQD80-DWVcdqU01o05o" name="Страница 1">
    <mxGraphModel dx="835" dy="783" grid="1" gridSize="10" guides="1" tooltips="1" connect="1" arrows="1" fold="1" page="1" pageScale="1" pageWidth="827" pageHeight="1169" math="0" shadow="0">
      <root>
        <mxCell id="0" />
        <mxCell id="1" parent="0" />
        <mxCell id="lRXsPksvzIz9v0DyNmko-1" value="" style="rounded=0;whiteSpace=wrap;html=1;" vertex="1" parent="1">
          <mxGeometry x="410" y="220" width="120" height="60" as="geometry" />
        </mxCell>
        <mxCell id="lRXsPksvzIz9v0DyNmko-2" value="Функционирование гостиницы" style="text;strokeColor=none;align=center;fillColor=none;html=1;verticalAlign=middle;whiteSpace=wrap;rounded=0;" vertex="1" parent="1">
          <mxGeometry x="440" y="235" width="60" height="30" as="geometry" />
        </mxCell>
        <mxCell id="lRXsPksvzIz9v0DyNmko-3" value="" style="rounded=0;whiteSpace=wrap;html=1;" vertex="1" parent="1">
          <mxGeometry x="320" y="320" width="120" height="60" as="geometry" />
        </mxCell>
        <mxCell id="lRXsPksvzIz9v0DyNmko-4" value="Предоставление номеров" style="text;strokeColor=none;align=center;fillColor=none;html=1;verticalAlign=middle;whiteSpace=wrap;rounded=0;" vertex="1" parent="1">
          <mxGeometry x="354" y="335" width="60" height="30" as="geometry" />
        </mxCell>
        <mxCell id="lRXsPksvzIz9v0DyNmko-6" value="" style="rounded=0;whiteSpace=wrap;html=1;" vertex="1" parent="1">
          <mxGeometry x="320" y="410" width="80" height="60" as="geometry" />
        </mxCell>
        <mxCell id="lRXsPksvzIz9v0DyNmko-7" value="Оформление поселения" style="text;strokeColor=none;align=center;fillColor=none;html=1;verticalAlign=middle;whiteSpace=wrap;rounded=0;" vertex="1" parent="1">
          <mxGeometry x="330" y="425" width="60" height="30" as="geometry" />
        </mxCell>
        <mxCell id="lRXsPksvzIz9v0DyNmko-8" value="" style="rounded=0;whiteSpace=wrap;html=1;" vertex="1" parent="1">
          <mxGeometry x="410" y="410" width="80" height="60" as="geometry" />
        </mxCell>
        <mxCell id="lRXsPksvzIz9v0DyNmko-9" value="" style="rounded=0;whiteSpace=wrap;html=1;" vertex="1" parent="1">
          <mxGeometry x="500" y="410" width="80" height="60" as="geometry" />
        </mxCell>
        <mxCell id="lRXsPksvzIz9v0DyNmko-10" value="" style="rounded=0;whiteSpace=wrap;html=1;" vertex="1" parent="1">
          <mxGeometry x="590" y="410" width="80" height="60" as="geometry" />
        </mxCell>
        <mxCell id="lRXsPksvzIz9v0DyNmko-11" value="" style="rounded=0;whiteSpace=wrap;html=1;" vertex="1" parent="1">
          <mxGeometry x="680" y="410" width="80" height="60" as="geometry" />
        </mxCell>
        <mxCell id="lRXsPksvzIz9v0DyNmko-12" value="Прием предоплата" style="text;strokeColor=none;align=center;fillColor=none;html=1;verticalAlign=middle;whiteSpace=wrap;rounded=0;" vertex="1" parent="1">
          <mxGeometry x="420" y="425" width="60" height="30" as="geometry" />
        </mxCell>
        <mxCell id="lRXsPksvzIz9v0DyNmko-13" value="Администр-ние ключейt" style="text;strokeColor=none;align=center;fillColor=none;html=1;verticalAlign=middle;whiteSpace=wrap;rounded=0;" vertex="1" parent="1">
          <mxGeometry x="510" y="425" width="60" height="30" as="geometry" />
        </mxCell>
      </root>
    </mxGraphModel>
  </diagram>
</mxfile>
